<?xml version="1.0" encoding="UTF-8" standalone="no"?>
<!-- Created with Inkscape (http://www.inkscape.org/) -->

<svg
   xmlns:dc="http://purl.org/dc/elements/1.1/"
   xmlns:cc="http://creativecommons.org/ns#"
   xmlns:rdf="http://www.w3.org/1999/02/22-rdf-syntax-ns#"
   xmlns:svg="http://www.w3.org/2000/svg"
   xmlns="http://www.w3.org/2000/svg"
   xmlns:sodipodi="http://sodipodi.sourceforge.net/DTD/sodipodi-0.dtd"
   xmlns:inkscape="http://www.inkscape.org/namespaces/inkscape"
   width="90.54641mm"
   height="4.9144287mm"
   viewBox="0 0 90.54641 4.9144287"
   version="1.1"
   id="svg3872"
   sodipodi:docname="logo.svg"
   inkscape:version="0.92.3 (2405546, 2018-03-11)">
  <defs
     id="defs3866" />
  <sodipodi:namedview
     id="base"
     pagecolor="#ffffff"
     bordercolor="#666666"
     borderopacity="1.0"
     inkscape:pageopacity="0.0"
     inkscape:pageshadow="2"
     inkscape:zoom="0.66"
     inkscape:cx="4.1173078"
     inkscape:cy="-198.15408"
     inkscape:document-units="mm"
     inkscape:current-layer="layer1"
     showgrid="false"
     inkscape:window-width="1920"
     inkscape:window-height="1031"
     inkscape:window-x="0"
     inkscape:window-y="25"
     inkscape:window-maximized="1" />
  <metadata
     id="metadata3869">
    <rdf:RDF>
      <cc:Work
         rdf:about="">
        <dc:format>image/svg+xml</dc:format>
        <dc:type
           rdf:resource="http://purl.org/dc/dcmitype/StillImage" />
      </cc:Work>
    </rdf:RDF>
  </metadata>
  <g
     inkscape:label="Ebene 1"
     inkscape:groupmode="layer"
     id="layer1"
     transform="translate(-14.253393,-87.553311)">
    <flowRoot
       xml:space="preserve"
       id="flowRoot3874"
       style="font-style:normal;font-weight:normal;font-size:40px;line-height:1.25;font-family:sans-serif;letter-spacing:0px;word-spacing:0px;fill:#000000;fill-opacity:1;stroke:none"><flowRegion
         id="flowRegion3876"><rect
           id="rect3878"
           width="565.15149"
           height="57.575756"
           x="95.454544"
           y="354.33786" /></flowRegion><flowPara
         id="flowPara3880"></flowPara></flowRoot>    <g
       aria-label="Roszak Fliesen &amp; Trockenbau"
       transform="scale(0.26458333)"
       style="font-style:normal;font-variant:normal;font-weight:normal;font-stretch:normal;font-size:26.66666794px;line-height:1.25;font-family:sans-serif;-inkscape-font-specification:'sans-serif, Normal';font-variant-ligatures:normal;font-variant-caps:normal;font-variant-numeric:normal;font-feature-settings:normal;text-align:start;letter-spacing:0px;word-spacing:0px;writing-mode:lr-tb;text-anchor:start;fill:#000000;fill-opacity:1;stroke:none"
       id="flowRoot3882">
      <path
         d="m 62.167969,340.94141 q 0.761718,0.25781 1.476562,1.10156 0.726563,0.84375 1.453125,2.32031 L 67.5,349.14453 h -2.542969 l -2.238281,-4.48828 q -0.867188,-1.75781 -1.6875,-2.33203 Q 60.222656,341.75 58.816406,341.75 h -2.578125 v 7.39453 h -2.367187 v -17.49609 h 5.34375 q 3,0 4.476562,1.2539 1.476563,1.25391 1.476563,3.78516 0,1.65234 -0.773438,2.74219 -0.761719,1.08984 -2.226562,1.51172 z m -5.929688,-7.34766 v 6.21094 h 2.976563 q 1.710937,0 2.578125,-0.78516 0.878906,-0.79687 0.878906,-2.33203 0,-1.53516 -0.878906,-2.30859 -0.867188,-0.78516 -2.578125,-0.78516 z"
         style="font-style:normal;font-variant:normal;font-weight:normal;font-stretch:normal;font-size:24px;font-family:sans-serif;-inkscape-font-specification:'sans-serif, Normal';font-variant-ligatures:normal;font-variant-caps:normal;font-variant-numeric:normal;font-feature-settings:normal;text-align:start;writing-mode:lr-tb;text-anchor:start"
         id="path3988" />
      <path
         d="m 74.472656,337.53125 q -1.734375,0 -2.742187,1.35938 -1.007813,1.34765 -1.007813,3.70312 0,2.35547 0.996094,3.71484 1.007812,1.34766 2.753906,1.34766 1.722656,0 2.730469,-1.35937 1.007812,-1.35938 1.007812,-3.70313 0,-2.33203 -1.007812,-3.69141 -1.007813,-1.37109 -2.730469,-1.37109 z m 0,-1.82812 q 2.8125,0 4.417969,1.82812 1.605469,1.82813 1.605469,5.0625 0,3.22266 -1.605469,5.0625 -1.605469,1.82813 -4.417969,1.82813 -2.824219,0 -4.429687,-1.82813 -1.59375,-1.83984 -1.59375,-5.0625 0,-3.23437 1.59375,-5.0625 1.605468,-1.82812 4.429687,-1.82812 z"
         style="font-style:normal;font-variant:normal;font-weight:normal;font-stretch:normal;font-size:24px;font-family:sans-serif;-inkscape-font-specification:'sans-serif, Normal';font-variant-ligatures:normal;font-variant-caps:normal;font-variant-numeric:normal;font-feature-settings:normal;text-align:start;writing-mode:lr-tb;text-anchor:start"
         id="path3990" />
      <path
         d="m 92.425781,336.40625 v 2.03906 q -0.914062,-0.46875 -1.898437,-0.70312 -0.984375,-0.23438 -2.039063,-0.23438 -1.605469,0 -2.414062,0.49219 -0.796875,0.49219 -0.796875,1.47656 0,0.75 0.574218,1.1836 0.574219,0.42187 2.308594,0.80859 l 0.738281,0.16406 q 2.296875,0.49219 3.257813,1.39453 0.972656,0.89063 0.972656,2.4961 0,1.82812 -1.453125,2.89453 -1.441406,1.06641 -3.972656,1.06641 -1.054688,0 -2.203125,-0.21094 -1.136719,-0.19922 -2.402344,-0.60938 v -2.22656 q 1.195313,0.62109 2.355469,0.9375 1.160156,0.30469 2.296875,0.30469 1.523437,0 2.34375,-0.51563 0.820312,-0.52734 0.820312,-1.47656 0,-0.87891 -0.597656,-1.34766 -0.585937,-0.46875 -2.589844,-0.90234 l -0.75,-0.17578 q -2.003906,-0.42188 -2.894531,-1.28906 -0.890625,-0.87891 -0.890625,-2.40235 0,-1.85156 1.3125,-2.85937 1.3125,-1.00781 3.726563,-1.00781 1.195312,0 2.25,0.17578 1.054687,0.17578 1.945312,0.52734 z"
         style="font-style:normal;font-variant:normal;font-weight:normal;font-stretch:normal;font-size:24px;font-family:sans-serif;-inkscape-font-specification:'sans-serif, Normal';font-variant-ligatures:normal;font-variant-caps:normal;font-variant-numeric:normal;font-feature-settings:normal;text-align:start;writing-mode:lr-tb;text-anchor:start"
         id="path3992" />
      <path
         d="m 95.636719,336.01953 h 10.242191 v 1.96875 l -8.109379,9.4336 h 8.109379 v 1.72265 H 95.34375 v -1.96875 l 8.10938,-9.43359 h -7.816411 z"
         style="font-style:normal;font-variant:normal;font-weight:normal;font-stretch:normal;font-size:24px;font-family:sans-serif;-inkscape-font-specification:'sans-serif, Normal';font-variant-ligatures:normal;font-variant-caps:normal;font-variant-numeric:normal;font-feature-settings:normal;text-align:start;writing-mode:lr-tb;text-anchor:start"
         id="path3994" />
      <path
         d="m 115.14844,342.54688 q -2.61328,0 -3.6211,0.59765 -1.00781,0.59766 -1.00781,2.03906 0,1.14844 0.75,1.82813 0.76172,0.66797 2.0625,0.66797 1.79297,0 2.8711,-1.26563 1.08984,-1.27734 1.08984,-3.38672 v -0.48046 z m 4.30078,-0.89063 v 7.48828 h -2.15625 v -1.99219 q -0.73828,1.19532 -1.83984,1.76954 -1.10157,0.5625 -2.69532,0.5625 -2.01562,0 -3.21093,-1.125 -1.1836,-1.13672 -1.1836,-3.03516 0,-2.21484 1.47656,-3.33984 1.48829,-1.125 4.42969,-1.125 h 3.02344 v -0.21094 q 0,-1.48828 -0.98438,-2.29688 -0.97265,-0.82031 -2.74218,-0.82031 -1.125,0 -2.19141,0.26953 -1.06641,0.26953 -2.05078,0.8086 v -1.99219 q 1.18359,-0.45703 2.29687,-0.67969 1.11329,-0.23437 2.16797,-0.23437 2.84766,0 4.25391,1.47656 1.40625,1.47656 1.40625,4.47656 z"
         style="font-style:normal;font-variant:normal;font-weight:normal;font-stretch:normal;font-size:24px;font-family:sans-serif;-inkscape-font-specification:'sans-serif, Normal';font-variant-ligatures:normal;font-variant-caps:normal;font-variant-numeric:normal;font-feature-settings:normal;text-align:start;writing-mode:lr-tb;text-anchor:start"
         id="path3996" />
      <path
         d="m 123.82031,330.91016 h 2.16797 v 10.76953 l 6.43359,-5.66016 h 2.75391 l -6.96094,6.14063 7.25391,6.98437 h -2.8125 l -6.66797,-6.41015 v 6.41015 h -2.16797 z"
         style="font-style:normal;font-variant:normal;font-weight:normal;font-stretch:normal;font-size:24px;font-family:sans-serif;-inkscape-font-specification:'sans-serif, Normal';font-variant-ligatures:normal;font-variant-caps:normal;font-variant-numeric:normal;font-feature-settings:normal;text-align:start;writing-mode:lr-tb;text-anchor:start"
         id="path3998" />
      <path
         d="m 145.55859,331.64844 h 10.05469 v 1.99219 h -7.6875 v 5.15625 h 6.9375 v 1.99218 h -6.9375 v 8.35547 h -2.36719 z"
         style="font-style:normal;font-variant:normal;font-weight:normal;font-stretch:normal;font-size:24px;font-family:sans-serif;-inkscape-font-specification:'sans-serif, Normal';font-variant-ligatures:normal;font-variant-caps:normal;font-variant-numeric:normal;font-feature-settings:normal;text-align:start;writing-mode:lr-tb;text-anchor:start"
         id="path4000" />
      <path
         d="m 159.29297,330.91016 h 2.15625 v 18.23437 h -2.15625 z"
         style="font-style:normal;font-variant:normal;font-weight:normal;font-stretch:normal;font-size:24px;font-family:sans-serif;-inkscape-font-specification:'sans-serif, Normal';font-variant-ligatures:normal;font-variant-caps:normal;font-variant-numeric:normal;font-feature-settings:normal;text-align:start;writing-mode:lr-tb;text-anchor:start"
         id="path4002" />
      <path
         d="m 165.94922,336.01953 h 2.15625 v 13.125 h -2.15625 z m 0,-5.10937 h 2.15625 v 2.73047 h -2.15625 z"
         style="font-style:normal;font-variant:normal;font-weight:normal;font-stretch:normal;font-size:24px;font-family:sans-serif;-inkscape-font-specification:'sans-serif, Normal';font-variant-ligatures:normal;font-variant-caps:normal;font-variant-numeric:normal;font-feature-settings:normal;text-align:start;writing-mode:lr-tb;text-anchor:start"
         id="path4004" />
      <path
         d="m 183.83203,342.04297 v 1.05469 h -9.91406 q 0.14062,2.22656 1.33594,3.39843 1.20703,1.16016 3.35156,1.16016 1.24219,0 2.40234,-0.30469 1.17188,-0.30468 2.32031,-0.91406 v 2.03906 q -1.16015,0.49219 -2.3789,0.75 -1.21875,0.25782 -2.47266,0.25782 -3.14062,0 -4.98047,-1.82813 -1.82812,-1.82812 -1.82812,-4.94531 0,-3.22266 1.73437,-5.10938 1.7461,-1.89843 4.69922,-1.89843 2.64844,0 4.1836,1.71093 1.54687,1.69922 1.54687,4.62891 z m -2.15625,-0.63281 q -0.0234,-1.76953 -0.99609,-2.82422 -0.96094,-1.05469 -2.55469,-1.05469 -1.80469,0 -2.89453,1.01953 -1.07813,1.01953 -1.24219,2.8711 z"
         style="font-style:normal;font-variant:normal;font-weight:normal;font-stretch:normal;font-size:24px;font-family:sans-serif;-inkscape-font-specification:'sans-serif, Normal';font-variant-ligatures:normal;font-variant-caps:normal;font-variant-numeric:normal;font-feature-settings:normal;text-align:start;writing-mode:lr-tb;text-anchor:start"
         id="path4006" />
      <path
         d="m 195.73828,336.40625 v 2.03906 q -0.91406,-0.46875 -1.89844,-0.70312 -0.98437,-0.23438 -2.03906,-0.23438 -1.60547,0 -2.41406,0.49219 -0.79688,0.49219 -0.79688,1.47656 0,0.75 0.57422,1.1836 0.57422,0.42187 2.3086,0.80859 l 0.73828,0.16406 q 2.29687,0.49219 3.25781,1.39453 0.97266,0.89063 0.97266,2.4961 0,1.82812 -1.45313,2.89453 -1.44141,1.06641 -3.97266,1.06641 -1.05468,0 -2.20312,-0.21094 -1.13672,-0.19922 -2.40234,-0.60938 v -2.22656 q 1.19531,0.62109 2.35546,0.9375 1.16016,0.30469 2.29688,0.30469 1.52344,0 2.34375,-0.51563 0.82031,-0.52734 0.82031,-1.47656 0,-0.87891 -0.59765,-1.34766 -0.58594,-0.46875 -2.58985,-0.90234 l -0.75,-0.17578 q -2.0039,-0.42188 -2.89453,-1.28906 -0.89062,-0.87891 -0.89062,-2.40235 0,-1.85156 1.3125,-2.85937 1.3125,-1.00781 3.72656,-1.00781 1.19531,0 2.25,0.17578 1.05469,0.17578 1.94531,0.52734 z"
         style="font-style:normal;font-variant:normal;font-weight:normal;font-stretch:normal;font-size:24px;font-family:sans-serif;-inkscape-font-specification:'sans-serif, Normal';font-variant-ligatures:normal;font-variant-caps:normal;font-variant-numeric:normal;font-feature-settings:normal;text-align:start;writing-mode:lr-tb;text-anchor:start"
         id="path4008" />
      <path
         d="m 211.11328,342.04297 v 1.05469 h -9.91406 q 0.14062,2.22656 1.33594,3.39843 1.20703,1.16016 3.35156,1.16016 1.24219,0 2.40234,-0.30469 1.17188,-0.30468 2.32031,-0.91406 v 2.03906 q -1.16015,0.49219 -2.3789,0.75 -1.21875,0.25782 -2.47266,0.25782 -3.14062,0 -4.98047,-1.82813 -1.82812,-1.82812 -1.82812,-4.94531 0,-3.22266 1.73437,-5.10938 1.7461,-1.89843 4.69922,-1.89843 2.64844,0 4.1836,1.71093 1.54687,1.69922 1.54687,4.62891 z m -2.15625,-0.63281 q -0.0234,-1.76953 -0.99609,-2.82422 -0.96094,-1.05469 -2.55469,-1.05469 -1.80469,0 -2.89453,1.01953 -1.07813,1.01953 -1.24219,2.8711 z"
         style="font-style:normal;font-variant:normal;font-weight:normal;font-stretch:normal;font-size:24px;font-family:sans-serif;-inkscape-font-specification:'sans-serif, Normal';font-variant-ligatures:normal;font-variant-caps:normal;font-variant-numeric:normal;font-feature-settings:normal;text-align:start;writing-mode:lr-tb;text-anchor:start"
         id="path4010" />
      <path
         d="m 225.5625,341.22266 v 7.92187 h -2.15625 v -7.85156 q 0,-1.86328 -0.72656,-2.78906 -0.72657,-0.92578 -2.17969,-0.92578 -1.74609,0 -2.75391,1.11328 -1.00781,1.11328 -1.00781,3.03515 v 7.41797 h -2.16797 v -13.125 h 2.16797 v 2.03906 q 0.77344,-1.18359 1.81641,-1.76953 1.05468,-0.58593 2.42578,-0.58593 2.26172,0 3.42187,1.40625 1.16016,1.39453 1.16016,4.11328 z"
         style="font-style:normal;font-variant:normal;font-weight:normal;font-stretch:normal;font-size:24px;font-family:sans-serif;-inkscape-font-specification:'sans-serif, Normal';font-variant-ligatures:normal;font-variant-caps:normal;font-variant-numeric:normal;font-feature-settings:normal;text-align:start;writing-mode:lr-tb;text-anchor:start"
         id="path4012" />
      <path
         d="m 241.10156,339.73438 q -1.0664,0.94921 -1.57031,1.89843 -0.49219,0.9375 -0.49219,1.96875 0,1.71094 1.24219,2.84766 1.24219,1.13672 3.11719,1.13672 1.11328,0 2.08593,-0.36328 0.97266,-0.375 1.82813,-1.125 z m 1.65235,-1.3125 5.95312,6.09375 q 0.69141,-1.04297 1.07813,-2.22657 0.38671,-1.19531 0.45703,-2.53125 h 2.17968 q -0.14062,1.54688 -0.75,3.0586 -0.60937,1.51172 -1.69921,2.98828 l 3.26953,3.33984 h -2.95313 l -1.67578,-1.72265 q -1.21875,1.04296 -2.55469,1.55859 -1.33593,0.50391 -2.87109,0.50391 -2.82422,0 -4.61719,-1.60547 -1.79297,-1.61719 -1.79297,-4.13672 0,-1.5 0.78516,-2.8125 0.78516,-1.32422 2.35547,-2.48438 -0.5625,-0.73828 -0.85547,-1.46484 -0.29297,-0.73828 -0.29297,-1.44141 0,-1.89843 1.30078,-3.04687 1.30078,-1.16016 3.45703,-1.16016 0.97266,0 1.9336,0.21094 0.97265,0.21094 1.96875,0.63281 v 2.13281 q -1.01953,-0.55078 -1.94532,-0.83203 -0.92578,-0.29297 -1.72265,-0.29297 -1.23047,0 -2.00391,0.65625 -0.76172,0.64454 -0.76172,1.67579 0,0.59765 0.33985,1.20703 0.35156,0.59765 1.41797,1.69922 z"
         style="font-style:normal;font-variant:normal;font-weight:normal;font-stretch:normal;font-size:24px;font-family:sans-serif;-inkscape-font-specification:'sans-serif, Normal';font-variant-ligatures:normal;font-variant-caps:normal;font-variant-numeric:normal;font-feature-settings:normal;text-align:start;writing-mode:lr-tb;text-anchor:start"
         id="path4014" />
      <path
         d="m 261.53906,331.64844 h 14.80078 v 1.99219 h -6.21093 v 15.5039 H 267.75 v -15.5039 h -6.21094 z"
         style="font-style:normal;font-variant:normal;font-weight:normal;font-stretch:normal;font-size:24px;font-family:sans-serif;-inkscape-font-specification:'sans-serif, Normal';font-variant-ligatures:normal;font-variant-caps:normal;font-variant-numeric:normal;font-feature-settings:normal;text-align:start;writing-mode:lr-tb;text-anchor:start"
         id="path4016" />
      <path
         d="m 282.63281,338.03516 q -0.36328,-0.21094 -0.79687,-0.30469 -0.42188,-0.10547 -0.9375,-0.10547 -1.82813,0 -2.8125,1.19531 -0.97266,1.1836 -0.97266,3.41016 v 6.91406 h -2.16797 v -13.125 h 2.16797 v 2.03906 q 0.67969,-1.19531 1.76953,-1.76953 1.08985,-0.58593 2.64844,-0.58593 0.22266,0 0.49219,0.0351 0.26953,0.0234 0.59765,0.082 z"
         style="font-style:normal;font-variant:normal;font-weight:normal;font-stretch:normal;font-size:24px;font-family:sans-serif;-inkscape-font-specification:'sans-serif, Normal';font-variant-ligatures:normal;font-variant-caps:normal;font-variant-numeric:normal;font-feature-settings:normal;text-align:start;writing-mode:lr-tb;text-anchor:start"
         id="path4018" />
      <path
         d="m 289.48828,337.53125 q -1.73437,0 -2.74219,1.35938 -1.00781,1.34765 -1.00781,3.70312 0,2.35547 0.99609,3.71484 1.00782,1.34766 2.75391,1.34766 1.72266,0 2.73047,-1.35937 1.00781,-1.35938 1.00781,-3.70313 0,-2.33203 -1.00781,-3.69141 -1.00781,-1.37109 -2.73047,-1.37109 z m 0,-1.82812 q 2.8125,0 4.41797,1.82812 1.60547,1.82813 1.60547,5.0625 0,3.22266 -1.60547,5.0625 -1.60547,1.82813 -4.41797,1.82813 -2.82422,0 -4.42969,-1.82813 -1.59375,-1.83984 -1.59375,-5.0625 0,-3.23437 1.59375,-5.0625 1.60547,-1.82812 4.42969,-1.82812 z"
         style="font-style:normal;font-variant:normal;font-weight:normal;font-stretch:normal;font-size:24px;font-family:sans-serif;-inkscape-font-specification:'sans-serif, Normal';font-variant-ligatures:normal;font-variant-caps:normal;font-variant-numeric:normal;font-feature-settings:normal;text-align:start;writing-mode:lr-tb;text-anchor:start"
         id="path4020" />
      <path
         d="m 308.51953,336.52344 v 2.01562 q -0.91406,-0.5039 -1.83984,-0.75 -0.91407,-0.25781 -1.85157,-0.25781 -2.09765,0 -3.25781,1.33594 -1.16015,1.32422 -1.16015,3.72656 0,2.40234 1.16015,3.73828 1.16016,1.32422 3.25781,1.32422 0.9375,0 1.85157,-0.24609 0.92578,-0.25782 1.83984,-0.76172 v 1.99219 q -0.90234,0.42187 -1.875,0.63281 -0.96094,0.21094 -2.05078,0.21094 -2.96484,0 -4.71094,-1.86329 -1.74609,-1.86328 -1.74609,-5.02734 0,-3.21094 1.75781,-5.05078 1.76953,-1.83984 4.83984,-1.83984 0.9961,0 1.94532,0.21093 0.94922,0.19922 1.83984,0.60938 z"
         style="font-style:normal;font-variant:normal;font-weight:normal;font-stretch:normal;font-size:24px;font-family:sans-serif;-inkscape-font-specification:'sans-serif, Normal';font-variant-ligatures:normal;font-variant-caps:normal;font-variant-numeric:normal;font-feature-settings:normal;text-align:start;writing-mode:lr-tb;text-anchor:start"
         id="path4022" />
      <path
         d="m 312.21094,330.91016 h 2.16797 v 10.76953 l 6.43359,-5.66016 h 2.75391 l -6.96094,6.14063 7.2539,6.98437 h -2.8125 l -6.66796,-6.41015 v 6.41015 h -2.16797 z"
         style="font-style:normal;font-variant:normal;font-weight:normal;font-stretch:normal;font-size:24px;font-family:sans-serif;-inkscape-font-specification:'sans-serif, Normal';font-variant-ligatures:normal;font-variant-caps:normal;font-variant-numeric:normal;font-feature-settings:normal;text-align:start;writing-mode:lr-tb;text-anchor:start"
         id="path4024" />
      <path
         d="m 336.59766,342.04297 v 1.05469 h -9.91407 q 0.14063,2.22656 1.33594,3.39843 1.20703,1.16016 3.35156,1.16016 1.24219,0 2.40235,-0.30469 1.17187,-0.30468 2.32031,-0.91406 v 2.03906 q -1.16016,0.49219 -2.37891,0.75 -1.21875,0.25782 -2.47265,0.25782 -3.14063,0 -4.98047,-1.82813 -1.82813,-1.82812 -1.82813,-4.94531 0,-3.22266 1.73438,-5.10938 1.74609,-1.89843 4.69922,-1.89843 2.64843,0 4.18359,1.71093 1.54688,1.69922 1.54688,4.62891 z m -2.15625,-0.63281 q -0.0234,-1.76953 -0.9961,-2.82422 -0.96094,-1.05469 -2.55469,-1.05469 -1.80468,0 -2.89453,1.01953 -1.07812,1.01953 -1.24218,2.8711 z"
         style="font-style:normal;font-variant:normal;font-weight:normal;font-stretch:normal;font-size:24px;font-family:sans-serif;-inkscape-font-specification:'sans-serif, Normal';font-variant-ligatures:normal;font-variant-caps:normal;font-variant-numeric:normal;font-feature-settings:normal;text-align:start;writing-mode:lr-tb;text-anchor:start"
         id="path4026" />
      <path
         d="m 351.04687,341.22266 v 7.92187 h -2.15625 v -7.85156 q 0,-1.86328 -0.72656,-2.78906 -0.72656,-0.92578 -2.17969,-0.92578 -1.74609,0 -2.7539,1.11328 -1.00781,1.11328 -1.00781,3.03515 v 7.41797 h -2.16797 v -13.125 h 2.16797 v 2.03906 q 0.77343,-1.18359 1.8164,-1.76953 1.05469,-0.58593 2.42578,-0.58593 2.26172,0 3.42188,1.40625 1.16015,1.39453 1.16015,4.11328 z"
         style="font-style:normal;font-variant:normal;font-weight:normal;font-stretch:normal;font-size:24px;font-family:sans-serif;-inkscape-font-specification:'sans-serif, Normal';font-variant-ligatures:normal;font-variant-caps:normal;font-variant-numeric:normal;font-feature-settings:normal;text-align:start;writing-mode:lr-tb;text-anchor:start"
         id="path4028" />
      <path
         d="m 364.79297,342.59375 q 0,-2.37891 -0.98438,-3.72656 -0.97265,-1.35938 -2.68359,-1.35938 -1.71094,0 -2.69531,1.35938 -0.97266,1.34765 -0.97266,3.72656 0,2.37891 0.97266,3.73828 0.98437,1.34766 2.69531,1.34766 1.71094,0 2.68359,-1.34766 0.98438,-1.35937 0.98438,-3.73828 z m -7.33594,-4.58203 q 0.67969,-1.17188 1.71094,-1.73438 1.04297,-0.57421 2.48437,-0.57421 2.39063,0 3.87891,1.89843 1.5,1.89844 1.5,4.99219 0,3.09375 -1.5,4.99219 -1.48828,1.89844 -3.87891,1.89844 -1.4414,0 -2.48437,-0.5625 -1.03125,-0.57422 -1.71094,-1.7461 v 1.96875 h -2.16797 v -18.23437 h 2.16797 z"
         style="font-style:normal;font-variant:normal;font-weight:normal;font-stretch:normal;font-size:24px;font-family:sans-serif;-inkscape-font-specification:'sans-serif, Normal';font-variant-ligatures:normal;font-variant-caps:normal;font-variant-numeric:normal;font-feature-settings:normal;text-align:start;writing-mode:lr-tb;text-anchor:start"
         id="path4030" />
      <path
         d="m 376.57031,342.54688 q -2.61328,0 -3.62109,0.59765 -1.00781,0.59766 -1.00781,2.03906 0,1.14844 0.75,1.82813 0.76171,0.66797 2.0625,0.66797 1.79296,0 2.87109,-1.26563 1.08984,-1.27734 1.08984,-3.38672 v -0.48046 z m 4.30078,-0.89063 v 7.48828 h -2.15625 v -1.99219 q -0.73828,1.19532 -1.83984,1.76954 -1.10156,0.5625 -2.69531,0.5625 -2.01563,0 -3.21094,-1.125 -1.18359,-1.13672 -1.18359,-3.03516 0,-2.21484 1.47656,-3.33984 1.48828,-1.125 4.42969,-1.125 h 3.02343 v -0.21094 q 0,-1.48828 -0.98437,-2.29688 -0.97266,-0.82031 -2.74219,-0.82031 -1.125,0 -2.19141,0.26953 -1.0664,0.26953 -2.05078,0.8086 v -1.99219 q 1.1836,-0.45703 2.29688,-0.67969 1.11328,-0.23437 2.16797,-0.23437 2.84765,0 4.2539,1.47656 1.40625,1.47656 1.40625,4.47656 z"
         style="font-style:normal;font-variant:normal;font-weight:normal;font-stretch:normal;font-size:24px;font-family:sans-serif;-inkscape-font-specification:'sans-serif, Normal';font-variant-ligatures:normal;font-variant-caps:normal;font-variant-numeric:normal;font-feature-settings:normal;text-align:start;writing-mode:lr-tb;text-anchor:start"
         id="path4032" />
      <path
         d="m 385.10156,343.96484 v -7.94531 h 2.15625 v 7.86328 q 0,1.86328 0.72656,2.80078 0.72657,0.92579 2.17969,0.92579 1.7461,0 2.75391,-1.11329 1.01953,-1.11328 1.01953,-3.03515 v -7.44141 h 2.15625 v 13.125 h -2.15625 v -2.01562 q -0.78516,1.19531 -1.82813,1.78125 -1.03125,0.57422 -2.40234,0.57422 -2.26172,0 -3.43359,-1.40625 -1.17188,-1.40625 -1.17188,-4.11329 z m 5.42578,-8.26171 z"
         style="font-style:normal;font-variant:normal;font-weight:normal;font-stretch:normal;font-size:24px;font-family:sans-serif;-inkscape-font-specification:'sans-serif, Normal';font-variant-ligatures:normal;font-variant-caps:normal;font-variant-numeric:normal;font-feature-settings:normal;text-align:start;writing-mode:lr-tb;text-anchor:start"
         id="path4034" />
    </g>
  </g>
</svg>
